<svg id="Layer_2" data-name="Layer 2" xmlns="http://www.w3.org/2000/svg" xmlns:xlink="http://www.w3.org/1999/xlink" viewBox="0 0 346.98 343.25"><defs><style>.cls-1,.cls-2,.cls-3,.cls-4,.cls-5,.cls-6,.cls-7,.cls-9{stroke:#000;stroke-miterlimit:10;stroke-width:5.25px;}.cls-1{fill:url(#New_Gradient_Swatch_1);}.cls-2{fill:url(#New_Gradient_Swatch_1-2);}.cls-3{fill:url(#New_Gradient_Swatch_1-3);}.cls-4{fill:url(#New_Gradient_Swatch_1-4);}.cls-5{fill:url(#New_Gradient_Swatch_1-5);}.cls-6{fill:url(#New_Gradient_Swatch_1-6);}.cls-7{fill:url(#New_Gradient_Swatch_1-7);}.cls-8{fill:url(#linear-gradient);}.cls-9{fill:none;}</style><linearGradient id="New_Gradient_Swatch_1" x1="498.84" y1="234.52" x2="635.05" y2="234.52" gradientUnits="userSpaceOnUse"><stop offset="0" stop-color="#a47b2c"/><stop offset="0.12" stop-color="#d3a84b"/><stop offset="0.35" stop-color="#feeb94"/><stop offset="0.54" stop-color="#e5be68"/><stop offset="0.71" stop-color="#ffd87b"/><stop offset="0.87" stop-color="#b58f3e"/><stop offset="1" stop-color="#946e2a"/></linearGradient><linearGradient id="New_Gradient_Swatch_1-2" x1="594.11" y1="371.08" x2="729.11" y2="364.26" xlink:href="#New_Gradient_Swatch_1"/><linearGradient id="New_Gradient_Swatch_1-3" x1="581.03" y1="460.4" x2="616.85" y2="460.4" xlink:href="#New_Gradient_Swatch_1"/><linearGradient id="New_Gradient_Swatch_1-4" x1="623.26" y1="403" x2="674.04" y2="403" xlink:href="#New_Gradient_Swatch_1"/><linearGradient id="New_Gradient_Swatch_1-5" x1="498.84" y1="418.42" x2="633.83" y2="418.42" xlink:href="#New_Gradient_Swatch_1"/><linearGradient id="New_Gradient_Swatch_1-6" x1="580.94" y1="377.75" x2="738.05" y2="377.75" xlink:href="#New_Gradient_Swatch_1"/><linearGradient id="New_Gradient_Swatch_1-7" x1="525.83" y1="371.19" x2="665.43" y2="371.19" xlink:href="#New_Gradient_Swatch_1"/><linearGradient id="linear-gradient" x1="396.32" y1="372.27" x2="738.05" y2="372.27" gradientUnits="userSpaceOnUse"><stop offset="0" stop-color="#a47b2c"/><stop offset="0.07" stop-color="#d3a84b"/><stop offset="0.35" stop-color="#feeb94"/><stop offset="0.54" stop-color="#e5be68"/><stop offset="0.78" stop-color="#ffd87b"/><stop offset="1" stop-color="#c8a14d"/><stop offset="1" stop-color="#b58f3e"/><stop offset="1" stop-color="#946e2a"/></linearGradient></defs><title>Rida logo</title><path class="cls-1" d="M563,264.13a116.34,116.34,0,0,1,15.36,1.29c.73.1,1.47.22,2.21.34l-.13-30.87a137.25,137.25,0,0,1,54.47,17l.16-34.74a173,173,0,0,0-136.21.2v35.15A137.41,137.41,0,0,1,553.07,235l.07,28.64c4.82.21,8.66.42,9.72.46Z" transform="translate(-393.69 -200.65)"/><path class="cls-2" d="M512,470.57c.8.37,1.6.72,2.41,1.06,0-1.1-.11-2.21-.2-3.3a137.17,137.17,0,0,0-15.34-54,138.66,138.66,0,0,0-23.51-32.38,82.47,82.47,0,0,0-6.63-5.6c-2.35-1.95-5.91-4-7.61-6.52,0-.07,3.81.15,4.21.2a51.33,51.33,0,0,0,5.18.47c18.8.66,38.49-8.63,47.51-25.57a64.63,64.63,0,0,0,7.44-26.15q0-.47.07-.95c0-.32,0-.64.05-1,0-.49,0-1,0-1.5,0-.34,0-.68,0-1a64.93,64.93,0,0,0-14-40.34c-9.59-12.1-23.66-19.62-37.3-26.27-3.07-1.49-6.19-2.87-9.3-4.27-1-.46-4.8-2.85-5.9-2.08-3.48,2.8-6.84,5.75-10.08,8.81a168.25,168.25,0,0,0-49.24,88q-.4,1.95-.76,3.91a168.16,168.16,0,0,0-2.73,30.24c0,.26,0,.53,0,.79a169.46,169.46,0,0,0,77.47,140.75l.2-16.64.26-22.77a137.75,137.75,0,0,1-44.27-88,108,108,0,0,1,44.68,53.5c.7,1.82,1.34,3.64,1.93,5.49a112.62,112.62,0,0,0,22.25,18.17A114.75,114.75,0,0,0,512,470.57Zm-62.14-128c-1.46-.4-15.57-5.72-15.4-6.33a119.17,119.17,0,0,1,30.78-52.17c1.22-.8,14.27,8.8,15.32,9.71,11.42,9.88,15.74,26.66,9.16,38.31-3.68,6.51-10.33,10.5-17.55,12C464.72,345.59,457.07,344.58,449.83,342.61Z" transform="translate(-393.69 -200.65)"/><path class="cls-3" d="M616.85,466.82a115.86,115.86,0,0,1-35.44,12.42L581.27,446a99.93,99.93,0,0,0,17.21-4.44A137.72,137.72,0,0,0,616.85,466.82Z" transform="translate(-393.69 -200.65)"/><path class="cls-4" d="M674,372.59A104.29,104.29,0,0,1,661,423.17h0a109.32,109.32,0,0,1-19,25,110.9,110.9,0,0,1-7.94-9.24,107.94,107.94,0,0,1-10.81-17.25c.16-.18.31-.37.48-.55l.27.55a75.62,75.62,0,0,0,11-16.28h0a75.51,75.51,0,0,0,7.95-33.86,76.44,76.44,0,0,0-1.18-13.39H641l19.85-.17,12.16-.12A104,104,0,0,1,674,372.59Z" transform="translate(-393.69 -200.65)"/><path class="cls-5" d="M633.83,493.55,633.67,528h0a173.2,173.2,0,0,1-129,1.62c-2-.77-3.92-1.57-5.87-2.41V492.35a133.68,133.68,0,0,0,14.11,7,137,137,0,0,0,40.72,10.48l-.07-29-.08-34.46-.32-149.71a76.07,76.07,0,0,1,27.46.26l.27,66.14v.29l.09,21.35v0l.25,61.2v0l.13,33.26.12,30.59A137.44,137.44,0,0,0,633.83,493.55Z" transform="translate(-393.69 -200.65)"/><path class="cls-6" d="M738,372.27a167.16,167.16,0,0,1-38.56,106.93,170.07,170.07,0,0,1-25.55,25q-6.15,4.89-12.77,9.2l0-14.31-.05-25.19q3.27-3,6.35-6.26a138.26,138.26,0,0,0,37.3-110.11l-31.74.29-12.16.12-19.85.17-6.56.07-21.46.19s-1,9.56-1,14.47c0,.23,0,.44,0,.68a107.09,107.09,0,0,0,22.15,65.38,110.9,110.9,0,0,0,7.94,9.24q-3.83,3.77-8,7.17a113.69,113.69,0,0,1-17.15,11.51,137.72,137.72,0,0,1-18.37-25.28,1.2,1.2,0,0,1-.1-.17c-.16-.27-.32-.55-.48-.83A137.1,137.1,0,0,1,581,384.77v0l-.09-21.35v-.29c0-13.9,4.25-27.86,9.75-40.51.85-1.94,8.79-19,9.57-19h0a77.74,77.74,0,0,1,6.81,3.87c.55.34,1.09.7,1.63,1.07,1.07.73,2.13,1.48,3.17,2.26a76.68,76.68,0,0,1,12.66,12l.46.56c.45.56-1.41,4.37-3.2,7.81l8.78,0h.75l3.2,0,26.23-.13,4.65,0,33.73-.17a138,138,0,0,0-30.35-52.24c-2.79,1.48-5.5,3.1-8.13,4.81a109.26,109.26,0,0,0-17.74,14.5,111.1,111.1,0,0,0-8.21-7.5A113.62,113.62,0,0,0,618,279a140.47,140.47,0,0,1,16.84-15.23q4.39-3.35,9-6.36a138.11,138.11,0,0,1,32.23-15.31,170.54,170.54,0,0,1,25.15,25.45A167.11,167.11,0,0,1,738,372.27Z" transform="translate(-393.69 -200.65)"/><path class="cls-7" d="M665.43,331l-4.65,0-26.23.13-3.2,0h-.75a74.25,74.25,0,0,0-5.58-7.76l-.46-.56a76.68,76.68,0,0,0-12.66-12q-1.56-1.17-3.17-2.26c-.54-.37-1.09-.73-1.63-1.07a74.07,74.07,0,0,0-6.81-3.87h0a5.62,5.62,0,0,0-.55-.29,74.76,74.76,0,0,0-18.29-6.23l-.75-.15a76.07,76.07,0,0,0-27.46-.26l-.06,182.48c-9.32-.55-17.71,0-26.44,0l-.12-25.57-.07-17.35-.59-129.11-.08-17.23L526,284l.49-19.93c0-1.4,15.82-.92,26.68-.46,4.81.22,8.65.42,9.72.46H563a140.15,140.15,0,0,1,15.36,1.3q1.1.15,2.21.34A115.75,115.75,0,0,1,618,279a113.62,113.62,0,0,1,16.73,11.47,111.1,111.1,0,0,1,8.21,7.5,108.81,108.81,0,0,1,17.83,23.66C662.48,324.66,664,327.82,665.43,331Z" transform="translate(-393.69 -200.65)"/><path class="cls-8" d="M563,264.13a116.34,116.34,0,0,1,15.36,1.29c.73.1,1.47.22,2.21.34l-.13-30.87a137.25,137.25,0,0,1,54.47,17l.16-34.74a173,173,0,0,0-136.21.2v35.15A137.41,137.41,0,0,1,553.07,235l.07,28.64c4.82.21,8.66.42,9.72.46Z" transform="translate(-393.69 -200.65)"/><path class="cls-8" d="M512,470.57c.8.37,1.6.72,2.41,1.06,0-1.1-.11-2.21-.2-3.3a137.17,137.17,0,0,0-15.34-54,138.66,138.66,0,0,0-23.51-32.38,82.47,82.47,0,0,0-6.63-5.6c-2.35-1.95-5.91-4-7.61-6.52,0-.07,3.81.15,4.21.2a51.33,51.33,0,0,0,5.18.47c18.8.66,38.49-8.63,47.51-25.57a64.63,64.63,0,0,0,7.44-26.15q0-.47.07-.95c0-.32,0-.64.05-1,0-.49,0-1,0-1.5,0-.34,0-.68,0-1a64.93,64.93,0,0,0-14-40.34c-9.59-12.1-23.66-19.62-37.3-26.27-3.07-1.49-6.19-2.87-9.3-4.27-1-.46-4.8-2.85-5.9-2.08-3.48,2.8-6.84,5.75-10.08,8.81a168.25,168.25,0,0,0-49.24,88q-.4,1.95-.76,3.91a168.16,168.16,0,0,0-2.73,30.24c0,.26,0,.53,0,.79a169.46,169.46,0,0,0,77.47,140.75l.2-16.64.26-22.77a137.75,137.75,0,0,1-44.27-88,108,108,0,0,1,44.68,53.5c.7,1.82,1.34,3.64,1.93,5.49a112.62,112.62,0,0,0,22.25,18.17A114.75,114.75,0,0,0,512,470.57Zm-62.14-128c-1.46-.4-15.57-5.72-15.4-6.33a119.17,119.17,0,0,1,30.78-52.17c1.22-.8,14.27,8.8,15.32,9.71,11.42,9.88,15.74,26.66,9.16,38.31-3.68,6.51-10.33,10.5-17.55,12C464.72,345.59,457.07,344.58,449.83,342.61Z" transform="translate(-393.69 -200.65)"/><path class="cls-8" d="M616.85,466.82a115.86,115.86,0,0,1-35.44,12.42L581.27,446a99.93,99.93,0,0,0,17.21-4.44A137.72,137.72,0,0,0,616.85,466.82Z" transform="translate(-393.69 -200.65)"/><path class="cls-8" d="M674,372.59A104.29,104.29,0,0,1,661,423.17h0a109.32,109.32,0,0,1-19,25,110.9,110.9,0,0,1-7.94-9.24,107.94,107.94,0,0,1-10.81-17.25c.16-.18.31-.37.48-.55l.27.55a75.62,75.62,0,0,0,11-16.28h0a75.51,75.51,0,0,0,7.95-33.86,76.44,76.44,0,0,0-1.18-13.39H641l19.85-.17,12.16-.12A104,104,0,0,1,674,372.59Z" transform="translate(-393.69 -200.65)"/><path class="cls-8" d="M633.83,493.55,633.67,528h0a173.2,173.2,0,0,1-129,1.62c-2-.77-3.92-1.57-5.87-2.41V492.35a133.68,133.68,0,0,0,14.11,7,137,137,0,0,0,40.72,10.48l-.07-29-.08-34.46-.32-149.71a76.07,76.07,0,0,1,27.46.26l.27,66.14v.29l.09,21.35v0l.25,61.2v0l.13,33.26.12,30.59A137.44,137.44,0,0,0,633.83,493.55Z" transform="translate(-393.69 -200.65)"/><path class="cls-8" d="M738,372.27a167.16,167.16,0,0,1-38.56,106.93,170.07,170.07,0,0,1-25.55,25q-6.15,4.89-12.77,9.2l0-14.31-.05-25.19q3.27-3,6.35-6.26a138.26,138.26,0,0,0,37.3-110.11l-31.74.29-12.16.12-19.85.17-6.56.07-21.46.19s-1,9.56-1,14.47c0,.23,0,.44,0,.68a107.09,107.09,0,0,0,22.15,65.38,110.9,110.9,0,0,0,7.94,9.24q-3.83,3.77-8,7.17a113.69,113.69,0,0,1-17.15,11.51,137.72,137.72,0,0,1-18.37-25.28,1.2,1.2,0,0,1-.1-.17c-.16-.27-.32-.55-.48-.83A137.1,137.1,0,0,1,581,384.77v0l-.09-21.35v-.29c0-13.9,4.25-27.86,9.75-40.51.85-1.94,8.79-19,9.57-19h0a77.74,77.74,0,0,1,6.81,3.87c.55.34,1.09.7,1.63,1.07,1.07.73,2.13,1.48,3.17,2.26a76.68,76.68,0,0,1,12.66,12l.46.56c.45.56-1.41,4.37-3.2,7.81l8.78,0h.75l3.2,0,26.23-.13,4.65,0,33.73-.17a138,138,0,0,0-30.35-52.24c-2.79,1.48-5.5,3.1-8.13,4.81a109.26,109.26,0,0,0-17.74,14.5,111.1,111.1,0,0,0-8.21-7.5A113.62,113.62,0,0,0,618,279a140.47,140.47,0,0,1,16.84-15.23q4.39-3.35,9-6.36a138.11,138.11,0,0,1,32.23-15.31,170.54,170.54,0,0,1,25.15,25.45A167.11,167.11,0,0,1,738,372.27Z" transform="translate(-393.69 -200.65)"/><path class="cls-8" d="M665.43,331l-4.65,0-26.23.13-3.2,0h-.75a74.25,74.25,0,0,0-5.58-7.76l-.46-.56a76.68,76.68,0,0,0-12.66-12q-1.56-1.17-3.17-2.26c-.54-.37-1.09-.73-1.63-1.07a74.07,74.07,0,0,0-6.81-3.87h0a5.62,5.62,0,0,0-.55-.29,74.76,74.76,0,0,0-18.29-6.23l-.75-.15a76.07,76.07,0,0,0-27.46-.26l-.06,182.48c-9.32-.55-17.71,0-26.44,0l-.12-25.57-.07-17.35-.59-129.11-.08-17.23L526,284l.49-19.93c0-1.4,15.82-.92,26.68-.46,4.81.22,8.65.42,9.72.46H563a140.15,140.15,0,0,1,15.36,1.3q1.1.15,2.21.34A115.75,115.75,0,0,1,618,279a113.62,113.62,0,0,1,16.73,11.47,111.1,111.1,0,0,1,8.21,7.5,108.81,108.81,0,0,1,17.83,23.66C662.48,324.66,664,327.82,665.43,331Z" transform="translate(-393.69 -200.65)"/><path class="cls-9" d="M563,264.13a116.34,116.34,0,0,1,15.36,1.29c.73.1,1.47.22,2.21.34l-.13-30.87a137.25,137.25,0,0,1,54.47,17l.16-34.74a173,173,0,0,0-136.21.2v35.15A137.41,137.41,0,0,1,553.07,235l.07,28.64c4.82.21,8.66.42,9.72.46Z" transform="translate(-393.69 -200.65)"/><path class="cls-9" d="M512,470.57c.8.37,1.6.72,2.41,1.06,0-1.1-.11-2.21-.2-3.3a137.17,137.17,0,0,0-15.34-54,138.66,138.66,0,0,0-23.51-32.38,82.47,82.47,0,0,0-6.63-5.6c-2.35-1.95-5.91-4-7.61-6.52,0-.07,3.81.15,4.21.2a51.33,51.33,0,0,0,5.18.47c18.8.66,38.49-8.63,47.51-25.57a64.63,64.63,0,0,0,7.44-26.15q0-.47.07-.95c0-.32,0-.64.05-1,0-.49,0-1,0-1.5,0-.34,0-.68,0-1a64.93,64.93,0,0,0-14-40.34c-9.59-12.1-23.66-19.62-37.3-26.27-3.07-1.49-6.19-2.87-9.3-4.27-1-.46-4.8-2.85-5.9-2.08-3.48,2.8-6.84,5.75-10.08,8.81a168.25,168.25,0,0,0-49.24,88q-.4,1.95-.76,3.91a168.16,168.16,0,0,0-2.73,30.24c0,.26,0,.53,0,.79a169.46,169.46,0,0,0,77.47,140.75l.2-16.64.26-22.77a137.75,137.75,0,0,1-44.27-88,108,108,0,0,1,44.68,53.5c.7,1.82,1.34,3.64,1.93,5.49a112.62,112.62,0,0,0,22.25,18.17A114.75,114.75,0,0,0,512,470.57Zm-62.14-128c-1.46-.4-15.57-5.72-15.4-6.33a119.17,119.17,0,0,1,30.78-52.17c1.22-.8,14.27,8.8,15.32,9.71,11.42,9.88,15.74,26.66,9.16,38.31-3.68,6.51-10.33,10.5-17.55,12C464.72,345.59,457.07,344.58,449.83,342.61Z" transform="translate(-393.69 -200.65)"/><path class="cls-9" d="M616.85,466.82a115.86,115.86,0,0,1-35.44,12.42L581.27,446a99.93,99.93,0,0,0,17.21-4.44A137.72,137.72,0,0,0,616.85,466.82Z" transform="translate(-393.69 -200.65)"/><path class="cls-9" d="M674,372.59A104.29,104.29,0,0,1,661,423.17h0a109.32,109.32,0,0,1-19,25,110.9,110.9,0,0,1-7.94-9.24,107.94,107.94,0,0,1-10.81-17.25c.16-.18.31-.37.48-.55l.27.55a75.62,75.62,0,0,0,11-16.28h0a75.51,75.51,0,0,0,7.95-33.86,76.44,76.44,0,0,0-1.18-13.39H641l19.85-.17,12.16-.12A104,104,0,0,1,674,372.59Z" transform="translate(-393.69 -200.65)"/><path class="cls-9" d="M633.83,493.55,633.67,528h0a173.2,173.2,0,0,1-129,1.62c-2-.77-3.92-1.57-5.87-2.41V492.35a133.68,133.68,0,0,0,14.11,7,137,137,0,0,0,40.72,10.48l-.07-29-.08-34.46-.32-149.71a76.07,76.07,0,0,1,27.46.26l.27,66.14v.29l.09,21.35v0l.25,61.2v0l.13,33.26.12,30.59A137.44,137.44,0,0,0,633.83,493.55Z" transform="translate(-393.69 -200.65)"/><path class="cls-9" d="M738,372.27a167.16,167.16,0,0,1-38.56,106.93,170.07,170.07,0,0,1-25.55,25q-6.15,4.89-12.77,9.2l0-14.31-.05-25.19q3.27-3,6.35-6.26a138.26,138.26,0,0,0,37.3-110.11l-31.74.29-12.16.12-19.85.17-6.56.07-21.46.19s-1,9.56-1,14.47c0,.23,0,.44,0,.68a107.09,107.09,0,0,0,22.15,65.38,110.9,110.9,0,0,0,7.94,9.24q-3.83,3.77-8,7.17a113.69,113.69,0,0,1-17.15,11.51,137.72,137.72,0,0,1-18.37-25.28,1.2,1.2,0,0,1-.1-.17c-.16-.27-.32-.55-.48-.83A137.1,137.1,0,0,1,581,384.77v0l-.09-21.35v-.29c0-13.9,4.25-27.86,9.75-40.51.85-1.94,8.79-19,9.57-19h0a77.74,77.74,0,0,1,6.81,3.87c.55.34,1.09.7,1.63,1.07,1.07.73,2.13,1.48,3.17,2.26a76.68,76.68,0,0,1,12.66,12l.46.56c.45.56-1.41,4.37-3.2,7.81l8.78,0h.75l3.2,0,26.23-.13,4.65,0,33.73-.17a138,138,0,0,0-30.35-52.24c-2.79,1.48-5.5,3.1-8.13,4.81a109.26,109.26,0,0,0-17.74,14.5,111.1,111.1,0,0,0-8.21-7.5A113.62,113.62,0,0,0,618,279a140.47,140.47,0,0,1,16.84-15.23q4.39-3.35,9-6.36a138.11,138.11,0,0,1,32.23-15.31,170.54,170.54,0,0,1,25.15,25.45A167.11,167.11,0,0,1,738,372.27Z" transform="translate(-393.69 -200.65)"/><path class="cls-9" d="M665.43,331l-4.65,0-26.23.13-3.2,0h-.75a74.25,74.25,0,0,0-5.58-7.76l-.46-.56a76.68,76.68,0,0,0-12.66-12q-1.56-1.17-3.17-2.26c-.54-.37-1.09-.73-1.63-1.07a74.07,74.07,0,0,0-6.81-3.87h0a5.62,5.62,0,0,0-.55-.29,74.76,74.76,0,0,0-18.29-6.23l-.75-.15a76.07,76.07,0,0,0-27.46-.26l-.06,182.48c-9.32-.55-17.71,0-26.44,0l-.12-25.57-.07-17.35-.59-129.11-.08-17.23L526,284l.49-19.93c0-1.4,15.82-.92,26.68-.46,4.81.22,8.65.42,9.72.46H563a140.15,140.15,0,0,1,15.36,1.3q1.1.15,2.21.34A115.75,115.75,0,0,1,618,279a113.62,113.62,0,0,1,16.73,11.47,111.1,111.1,0,0,1,8.21,7.5,108.81,108.81,0,0,1,17.83,23.66C662.48,324.66,664,327.82,665.43,331Z" transform="translate(-393.69 -200.65)"/></svg>